<svg xmlns="http://www.w3.org/2000/svg" data-name="Layer 2" viewBox="0 0 64.06 85.42">
  <path fill="#fff" d="M0 32.03C0 14.34 14.34 0 32.03 0s32.03 14.34 32.03 32.03c0 8.67-3.52 16.98-9.75 23.01-1.08 1.05-1.92 2.14-2.42 3.3l-4.07 9.44c-.42.98-1.39 1.61-2.45 1.61 1.47 0 2.67 1.2 2.67 2.67s-1.2 2.67-2.67 2.67c1.47 0 2.67 1.2 2.67 2.67s-1.2 2.67-2.67 2.67l-1.2 2.39a5.325 5.325 0 0 1-4.77 2.95H24.64c-2.02 0-3.87-1.14-4.77-2.95l-1.2-2.39c-1.47 0-2.67-1.2-2.67-2.67s1.2-2.67 2.67-2.67c-1.47 0-2.67-1.2-2.67-2.67s1.2-2.67 2.67-2.67c-1.07 0-2.03-.63-2.46-1.61l-4.06-9.45c-.58-1.25-1.4-2.37-2.42-3.3a32 32 0 0 1-9.73-23ZM32.03 5.34c-14.74 0-26.69 11.95-26.7 26.69 0 7.23 2.93 14.15 8.12 19.18 1.4 1.36 2.74 3.01 3.61 5.02l3.38 7.83h23.18l3.37-7.83c.86-2.01 2.2-3.67 3.61-5.02 10.59-10.25 10.86-27.15.61-37.74a26.635 26.635 0 0 0-19.19-8.12Z" data-name="Layer 1"/>
</svg>
