<svg id="Layer_2" data-name="Layer 2" xmlns="http://www.w3.org/2000/svg" viewBox="0 0 485.58 94.83">
  <defs>
    <style>
      .dot{fill:#cedffc}
    </style>
  </defs>
  <g id="Layer_4" data-name="Layer 4">
    <circle class="dot" cx="114.53" cy="89.75" r="4.66"/>
    <circle class="dot" cx="114.53" cy="47.2" r="4.66"/>
    <circle class="dot" cx="114.53" cy="4.66" r="4.66"/>
    <circle class="dot" cx="41.29" cy="89.75" r="4.66"/>
    <circle class="dot" cx="41.29" cy="47.2" r="4.66"/>
    <circle class="dot" cx="41.29" cy="4.66" r="4.66"/>
    <circle class="dot" cx="4.66" cy="89.75" r="4.66"/>
    <circle class="dot" cx="4.66" cy="47.2" r="4.66"/>
    <circle class="dot" cx="4.66" cy="4.66" r="4.66"/>
    <circle class="dot" cx="77.91" cy="89.75" r="4.66"/>
    <circle class="dot" cx="77.91" cy="47.2" r="4.66"/>
    <circle class="dot" cx="77.91" cy="4.66" r="4.66"/>
    <circle class="dot" cx="224.4" cy="89.75" r="4.66"/>
    <circle class="dot" cx="224.4" cy="47.2" r="4.66"/>
    <circle class="dot" cx="224.4" cy="4.66" r="4.66"/>
    <circle class="dot" cx="187.78" cy="89.75" r="4.66"/>
    <circle class="dot" cx="187.78" cy="47.2" r="4.66"/>
    <circle class="dot" cx="187.78" cy="4.66" r="4.66"/>
    <circle class="dot" cx="151.16" cy="89.75" r="4.66"/>
    <circle class="dot" cx="151.16" cy="47.2" r="4.66"/>
    <circle class="dot" cx="151.16" cy="4.66" r="4.66"/>
    <circle class="dot" cx="371.05" cy="90.17" r="4.66"/>
    <circle class="dot" cx="371.05" cy="47.62" r="4.66"/>
    <circle class="dot" cx="371.05" cy="5.08" r="4.66"/>
    <circle class="dot" cx="297.8" cy="90.17" r="4.66"/>
    <circle class="dot" cx="297.8" cy="47.62" r="4.66"/>
    <circle class="dot" cx="297.8" cy="5.08" r="4.66"/>
    <circle class="dot" cx="261.18" cy="90.17" r="4.66"/>
    <circle class="dot" cx="261.18" cy="47.62" r="4.66"/>
    <circle class="dot" cx="261.18" cy="5.08" r="4.66"/>
    <circle class="dot" cx="334.42" cy="90.17" r="4.66"/>
    <circle class="dot" cx="334.42" cy="47.62" r="4.66"/>
    <circle class="dot" cx="334.42" cy="5.08" r="4.66"/>
    <circle class="dot" cx="480.92" cy="90.17" r="4.66"/>
    <circle class="dot" cx="480.92" cy="47.62" r="4.66"/>
    <circle class="dot" cx="480.92" cy="5.08" r="4.66"/>
    <circle class="dot" cx="444.29" cy="90.17" r="4.66"/>
    <circle class="dot" cx="444.29" cy="47.62" r="4.66"/>
    <circle class="dot" cx="444.29" cy="5.08" r="4.66"/>
    <circle class="dot" cx="407.67" cy="90.17" r="4.66"/>
    <circle class="dot" cx="407.67" cy="47.62" r="4.66"/>
    <circle class="dot" cx="407.67" cy="5.08" r="4.66"/>
  </g>
</svg>
