<svg xmlns="http://www.w3.org/2000/svg" data-name="Layer 2" viewBox="0 0 77.28 71.34">
  <path fill="#fff" fill-rule="evenodd" d="M38.64 0a2.97 2.97 0 0 1 2.97 2.97v65.39a2.97 2.97 0 0 1-5.94 0V2.97A2.97 2.97 0 0 1 38.64 0ZM26.75 11.89a2.97 2.97 0 0 1 2.97 2.97v41.61a2.97 2.97 0 0 1-5.94 0V14.86a2.97 2.97 0 0 1 2.97-2.97Zm23.78 0a2.97 2.97 0 0 1 2.97 2.97v41.61a2.97 2.97 0 0 1-5.94 0V14.86a2.97 2.97 0 0 1 2.97-2.97Zm-35.67 8.92a2.97 2.97 0 0 1 2.97 2.97v23.78a2.97 2.97 0 0 1-5.94 0V23.78a2.97 2.97 0 0 1 2.97-2.97Zm47.56 0a2.97 2.97 0 0 1 2.97 2.97v23.78a2.97 2.97 0 0 1-5.94 0V23.78a2.97 2.97 0 0 1 2.97-2.97ZM2.97 26.75a2.97 2.97 0 0 1 2.97 2.97v11.89a2.97 2.97 0 0 1-5.94 0V29.72a2.97 2.97 0 0 1 2.97-2.97Zm71.34 0a2.97 2.97 0 0 1 2.97 2.97v11.89a2.97 2.97 0 0 1-5.94 0V29.72a2.97 2.97 0 0 1 2.97-2.97Z" data-name="Layer 1"/>
</svg>
